<svg width="16" height="16" viewBox="0 0 16 16" fill="none" xmlns="http://www.w3.org/2000/svg">
<path fill-rule="evenodd" clip-rule="evenodd" d="M3.00808 0.793945C2.63415 0.793945 2.33008 1.09802 2.33008 1.47195V12.4159C2.33008 12.7899 2.63415 13.0939 3.00808 13.0939H10.8801C11.254 13.0939 11.5581 12.7899 11.5581 12.4159V1.47195C11.5581 1.09802 11.254 0.793945 10.8801 0.793945H3.00808ZM1.83008 1.47195C1.83008 0.821874 2.35801 0.293945 3.00808 0.293945H10.8801C11.5301 0.293945 12.0581 0.821874 12.0581 1.47195V12.4159C12.0581 13.066 11.5301 13.5939 10.8801 13.5939H3.00808C2.35801 13.5939 1.83008 13.066 1.83008 12.4159V1.47195Z" fill="black"/>
<path fill-rule="evenodd" clip-rule="evenodd" d="M11.5584 2.68799C11.5584 2.54992 11.6703 2.43799 11.8084 2.43799H12.9924C13.6425 2.43799 14.1704 2.96592 14.1704 3.61599V14.528C14.1704 15.1781 13.6425 15.706 12.9924 15.706H5.12038C4.47031 15.706 3.94238 15.1781 3.94238 14.528V13.344C3.94238 13.2059 4.05431 13.094 4.19238 13.094C4.33045 13.094 4.44238 13.2059 4.44238 13.344V14.528C4.44238 14.9019 4.74645 15.206 5.12038 15.206H12.9924C13.3663 15.206 13.6704 14.9019 13.6704 14.528V3.61599C13.6704 3.24206 13.3663 2.93799 12.9924 2.93799H11.8084C11.6703 2.93799 11.5584 2.82606 11.5584 2.68799Z" fill="black"/>
<path fill-rule="evenodd" clip-rule="evenodd" d="M8.80566 6.24023C8.80566 6.10216 8.91759 5.99023 9.05566 5.99023H10.5597C10.6977 5.99023 10.8097 6.10216 10.8097 6.24023C10.8097 6.37831 10.6977 6.49023 10.5597 6.49023H9.05566C8.91759 6.49023 8.80566 6.37831 8.80566 6.24023Z" fill="black"/>
<path fill-rule="evenodd" clip-rule="evenodd" d="M3.07812 6.24023C3.07812 6.10216 3.19005 5.99023 3.32812 5.99023H4.54413C4.6822 5.99023 4.79413 6.10216 4.79413 6.24023C4.79413 6.37831 4.6822 6.49023 4.54413 6.49023H3.32812C3.19005 6.49023 3.07812 6.37831 3.07812 6.24023Z" fill="black"/>
<path fill-rule="evenodd" clip-rule="evenodd" d="M5.47754 7.64795C5.47754 7.50988 5.58947 7.39795 5.72754 7.39795H10.5595C10.6976 7.39795 10.8095 7.50988 10.8095 7.64795C10.8095 7.78602 10.6976 7.89795 10.5595 7.89795H5.72754C5.58947 7.89795 5.47754 7.78602 5.47754 7.64795Z" fill="black"/>
<path fill-rule="evenodd" clip-rule="evenodd" d="M3.07812 7.64795C3.07812 7.50988 3.19005 7.39795 3.32812 7.39795H4.51213C4.6502 7.39795 4.76213 7.50988 4.76213 7.64795C4.76213 7.78602 4.6502 7.89795 4.51213 7.89795H3.32812C3.19005 7.89795 3.07812 7.78602 3.07812 7.64795Z" fill="black"/>
<path fill-rule="evenodd" clip-rule="evenodd" d="M6.72559 9.05615C6.72559 8.91808 6.83751 8.80615 6.97559 8.80615H10.5596C10.6977 8.80615 10.8096 8.91808 10.8096 9.05615C10.8096 9.19422 10.6977 9.30615 10.5596 9.30615H6.97559C6.83751 9.30615 6.72559 9.19422 6.72559 9.05615Z" fill="black"/>
<path fill-rule="evenodd" clip-rule="evenodd" d="M3.07812 9.05615C3.07812 8.91808 3.19005 8.80615 3.32812 8.80615H5.72812C5.8662 8.80615 5.97812 8.91808 5.97812 9.05615C5.97812 9.19422 5.8662 9.30615 5.72812 9.30615H3.32812C3.19005 9.30615 3.07812 9.19422 3.07812 9.05615Z" fill="black"/>
<path fill-rule="evenodd" clip-rule="evenodd" d="M4.93359 10.4639C4.93359 10.3258 5.04552 10.2139 5.18359 10.2139H10.5596C10.6977 10.2139 10.8096 10.3258 10.8096 10.4639C10.8096 10.6019 10.6977 10.7139 10.5596 10.7139H5.18359C5.04552 10.7139 4.93359 10.6019 4.93359 10.4639Z" fill="black"/>
<path fill-rule="evenodd" clip-rule="evenodd" d="M3.07812 10.4639C3.07812 10.3258 3.19005 10.2139 3.32812 10.2139H3.96812C4.1062 10.2139 4.21812 10.3258 4.21812 10.4639C4.21812 10.6019 4.1062 10.7139 3.96812 10.7139H3.32812C3.19005 10.7139 3.07812 10.6019 3.07812 10.4639Z" fill="black"/>
<path fill-rule="evenodd" clip-rule="evenodd" d="M7.49414 11.8721C7.49414 11.734 7.60607 11.6221 7.74414 11.6221H10.5601C10.6982 11.6221 10.8101 11.734 10.8101 11.8721C10.8101 12.0101 10.6982 12.1221 10.5601 12.1221H7.74414C7.60607 12.1221 7.49414 12.0101 7.49414 11.8721Z" fill="black"/>
<path fill-rule="evenodd" clip-rule="evenodd" d="M3.07812 11.8721C3.07812 11.734 3.19005 11.6221 3.32812 11.6221H6.49612C6.6342 11.6221 6.74612 11.734 6.74612 11.8721C6.74612 12.0101 6.6342 12.1221 6.49612 12.1221H3.32812C3.19005 12.1221 3.07812 12.0101 3.07812 11.8721Z" fill="black"/>
<path fill-rule="evenodd" clip-rule="evenodd" d="M6.94403 1.91406C5.91568 1.91406 5.08203 2.74771 5.08203 3.77606C5.08203 4.80442 5.91568 5.63806 6.94403 5.63806C7.97239 5.63806 8.80603 4.80442 8.80603 3.77606C8.80603 2.74771 7.97239 1.91406 6.94403 1.91406ZM4.58203 3.77606C4.58203 2.47157 5.63953 1.41406 6.94403 1.41406C8.24853 1.41406 9.30603 2.47157 9.30603 3.77606C9.30603 5.08056 8.24853 6.13806 6.94403 6.13806C5.63953 6.13806 4.58203 5.08056 4.58203 3.77606Z" fill="black"/>
<path fill-rule="evenodd" clip-rule="evenodd" d="M6.94446 2.52197C6.72223 2.52197 6.52246 2.71415 6.52246 2.97597C6.52246 3.2378 6.72223 3.42997 6.94446 3.42997C7.16669 3.42997 7.36646 3.2378 7.36646 2.97597C7.36646 2.71415 7.16669 2.52197 6.94446 2.52197ZM6.02246 2.97597C6.02246 2.46018 6.42442 2.02197 6.94446 2.02197C7.4645 2.02197 7.86646 2.46018 7.86646 2.97597C7.86646 3.49176 7.4645 3.92997 6.94446 3.92997C6.42442 3.92997 6.02246 3.49177 6.02246 2.97597Z" fill="black"/>
<path fill-rule="evenodd" clip-rule="evenodd" d="M6.06062 4.65299C5.85769 4.76937 5.70783 4.95808 5.6551 5.28762C5.63329 5.42396 5.50508 5.5168 5.36874 5.49498C5.23241 5.47317 5.13957 5.34496 5.16138 5.20862C5.23665 4.73816 5.47079 4.41487 5.81186 4.21926C6.13896 4.03165 6.54208 3.97412 6.94424 3.97412C7.34679 3.97412 7.74251 4.03175 8.06601 4.22006C8.40196 4.41561 8.63279 4.73609 8.72539 5.19909C8.75246 5.33448 8.66466 5.46619 8.52927 5.49327C8.39388 5.52034 8.26217 5.43254 8.2351 5.29715C8.16769 4.96015 8.01452 4.76863 7.81447 4.65218C7.60197 4.52849 7.30969 4.47412 6.94424 4.47412C6.5784 4.47412 6.27752 4.52859 6.06062 4.65299Z" fill="black"/>
</svg>
