<svg width="34" height="34" viewBox="0 0 34 34" fill="none" xmlns="http://www.w3.org/2000/svg">
<path d="M18.4166 21.9583L14.1666 26.2083C13.4583 26.2083 11.6024 24.3525 11.0358 23.8142C10.8799 23.6583 10.7241 23.5167 10.5683 23.3608C9.10909 21.8875 7.79159 20.3433 6.61575 18.7283C5.45409 17.1133 4.51909 15.4983 3.83909 13.8975C3.17325 12.2825 2.83325 10.7383 2.83325 9.26501C2.83325 8.30168 3.00325 7.38084 3.34325 6.53084C3.68325 5.66668 4.22159 4.87334 4.97242 4.16501C5.87909 3.27251 6.87075 2.83334 7.91909 2.83334C8.31575 2.83334 8.71242 2.91834 9.06659 3.08834C9.43492 3.25834 9.76075 3.51334 10.0158 3.88168L13.3024 8.51418C13.5574 8.86834 13.7416 9.19418 13.8691 9.50584C13.9966 9.80334 14.0674 10.1008 14.0674 10.37C14.0674 10.71 13.9683 11.05 13.7699 11.3758C13.5858 11.7017 13.3166 12.0417 12.9766 12.3817L11.8999 13.5008C11.7441 13.6567 11.6733 13.8408 11.6733 14.0675C11.6733 14.1808 11.6874 14.28 11.7158 14.3933C11.7583 14.5067 11.8008 14.5917 11.8291 14.6767C12.0841 15.1442 12.5233 15.7533 13.1466 16.49C13.7841 17.2267 14.4641 17.9775 15.2008 18.7283C15.3424 18.87 15.4983 19.0117 15.6399 19.1533C16.2066 19.7058 18.4166 21.25 18.4166 21.9583Z" fill="#2EF298"/>
<path d="M31.1243 25.9675C31.1243 26.3642 31.0534 26.775 30.9118 27.1717C30.8693 27.285 30.8268 27.3983 30.7701 27.5117C30.5293 28.0217 30.2176 28.5033 29.8068 28.9567C29.1126 29.7217 28.3476 30.2742 27.4834 30.6283C27.4693 30.6283 27.4551 30.6425 27.4409 30.6425C26.6051 30.9825 25.6984 31.1667 24.7209 31.1667C23.2759 31.1667 21.7318 30.8267 20.1026 30.1325C18.4734 29.4383 16.8443 28.5033 15.2293 27.3275C14.6768 26.9167 14.1243 26.5058 13.6001 26.0667L18.2326 21.4342C18.6293 21.7317 18.9834 21.9583 19.2809 22.1142C19.3518 22.1425 19.4368 22.185 19.5359 22.2275C19.6493 22.27 19.7626 22.2842 19.8901 22.2842C20.1309 22.2842 20.3151 22.1992 20.4709 22.0433L21.5476 20.9808C21.9018 20.6267 22.2418 20.3575 22.5676 20.1875C22.8934 19.9892 23.2193 19.89 23.5734 19.89C23.8426 19.89 24.1259 19.9467 24.4376 20.0742C24.7493 20.2017 25.0751 20.3858 25.4293 20.6267L30.1184 23.9558C30.4868 24.2108 30.7418 24.5083 30.8976 24.8625C31.0393 25.2167 31.1243 25.5708 31.1243 25.9675Z" fill="#2EF298"/>
</svg>
