<svg width="16" height="17" viewBox="0 0 16 17" fill="none" xmlns="http://www.w3.org/2000/svg">
<g clip-path="url(#clip0_167_3017)">
<path d="M12 0.5H4.00015C1.8004 0.5 0.000244141 2.30015 0.000244141 4.4999V12.5001C0.000244141 14.6993 1.8004 16.5 4.00015 16.5H12C14.1997 16.5 15.9999 14.6993 15.9999 12.5001V4.4999C15.9999 2.30015 14.1997 0.5 12 0.5ZM14.6665 12.5001C14.6665 13.9701 13.4707 15.1666 12 15.1666H4.00015C2.52999 15.1666 1.33361 13.9701 1.33361 12.5001V4.4999C1.33361 3.02955 2.52999 1.83337 4.00015 1.83337H12C13.4707 1.83337 14.6665 3.02955 14.6665 4.4999V12.5001Z" fill="black"/>
<path d="M12.334 5.16645C12.8862 5.16645 13.3339 4.71875 13.3339 4.16648C13.3339 3.61421 12.8862 3.1665 12.334 3.1665C11.7817 3.1665 11.334 3.61421 11.334 4.16648C11.334 4.71875 11.7817 5.16645 12.334 5.16645Z" fill="black"/>
<path d="M7.9999 4.5C5.79035 4.5 4 6.29054 4 8.4999C4 10.7084 5.79035 12.5002 7.9999 12.5002C10.2088 12.5002 11.9998 10.7084 11.9998 8.4999C11.9998 6.29054 10.2088 4.5 7.9999 4.5ZM7.9999 11.1668C6.52732 11.1668 5.33337 9.97287 5.33337 8.4999C5.33337 7.02693 6.52732 5.83337 7.9999 5.83337C9.47248 5.83337 10.6664 7.02693 10.6664 8.4999C10.6664 9.97287 9.47248 11.1668 7.9999 11.1668Z" fill="black"/>
</g>
<defs>
<clipPath id="clip0_167_3017">
<rect width="16" height="16" fill="white" transform="translate(0 0.5)"/>
</clipPath>
</defs>
</svg>
