<svg width="16" height="17" viewBox="0 0 16 17" fill="none" xmlns="http://www.w3.org/2000/svg">
<g clip-path="url(#clip0_167_3029)">
<path d="M2.16 0.633301C1.57334 0.633301 1.04 0.846644 0.64 1.24664C0.213344 1.6733 0 2.20661 0 2.76661C0 3.35327 0.24 3.88661 0.64 4.28661C1.04 4.68661 1.6 4.92661 2.13334 4.89996C2.13334 4.89996 2.16 4.89996 2.18669 4.89996C2.72003 4.89996 3.22669 4.68661 3.62669 4.28661C4.02669 3.88661 4.26669 3.35327 4.26669 2.76661C4.29334 2.20661 4.05334 1.67327 3.65334 1.27327C3.25334 0.846613 2.72 0.633301 2.16 0.633301ZM3.25334 3.9133C2.96 4.20664 2.56 4.3933 2.13334 4.36664C1.73334 4.36664 1.30669 4.20664 1.01334 3.9133C0.693344 3.61996 0.533344 3.1933 0.533344 2.76664C0.533344 2.33999 0.693344 1.93999 1.01334 1.61999C1.30669 1.32664 1.70669 1.16664 2.16 1.16664C2.56 1.16664 2.96 1.32664 3.25334 1.61999C3.57334 1.93999 3.73334 2.33999 3.73334 2.76664C3.73334 3.1933 3.57334 3.61996 3.25334 3.9133Z" fill="black"/>
<path d="M3.19995 5.43311H1.03995C0.613289 5.43311 0.266602 5.77976 0.266602 6.23311V15.5664C0.266602 15.9931 0.639945 16.3664 1.0666 16.3664H3.19995C3.6266 16.3664 3.99995 15.9931 3.99995 15.5931V6.23311C3.99995 5.80642 3.6266 5.43311 3.19995 5.43311ZM3.4666 15.5931C3.4666 15.7264 3.33326 15.8331 3.19995 15.8331H1.0666C0.933258 15.8331 0.799945 15.6998 0.799945 15.5664V6.23311C0.799945 6.09976 0.906601 5.96645 1.03995 5.96645H3.19995C3.33329 5.96645 3.4666 6.09979 3.4666 6.23311V15.5931Z" fill="black"/>
<path d="M12.2666 5.1665H11.7066C10.6666 5.1665 9.67998 5.61985 9.03998 6.33985V5.9665C9.03998 5.69985 8.77333 5.43316 8.50664 5.43316H5.83998C5.59998 5.43316 5.30664 5.6465 5.30664 5.93982V15.8865C5.30664 16.1798 5.59998 16.3665 5.83998 16.3665H8.77333C9.01333 16.3665 9.30667 16.1798 9.30667 15.8865V10.1265C9.30667 9.24647 9.94667 8.55313 10.7733 8.55313C11.2 8.55313 11.6 8.71313 11.8933 9.00647C12.16 9.24647 12.2667 9.61982 12.2667 10.0998V15.8332C12.2667 16.0998 12.5333 16.3665 12.8 16.3665H15.4667C15.7333 16.3665 16 16.0998 16 15.8332V8.95316C16 6.81985 14.3733 5.1665 12.2666 5.1665ZM15.4666 15.8065L15.44 15.8332H12.8266L12.8 10.0998C12.8 9.45985 12.64 8.97985 12.2933 8.63319C11.8933 8.23319 11.36 8.01985 10.8 8.01985C9.67998 8.0465 8.79998 8.95319 8.79998 10.1265V15.8332H5.86664V5.9665H8.50664L8.5333 5.99316V7.67316L9.2533 6.95316L9.27995 6.9265C9.8133 6.17985 10.7466 5.69985 11.7333 5.69985H12.2933C14.08 5.69985 15.4666 7.13985 15.4666 8.95319V15.8065Z" fill="black"/>
</g>
<defs>
<clipPath id="clip0_167_3029">
<rect width="16" height="16" fill="white" transform="translate(0 0.5)"/>
</clipPath>
</defs>
</svg>
