<svg width="1080" height="358" viewBox="0 0 1080 358" fill="none" xmlns="http://www.w3.org/2000/svg">
<rect width="1080" height="358" rx="52" fill="black"/>
<path d="M218.491 138.173V170.194H252.518C258.67 170.194 263.476 168.986 267.32 166.569C271.165 164.153 272.896 159.923 272.896 153.882C272.896 147.035 270.396 142.604 265.398 140.591C261.169 138.98 255.593 138.173 248.865 138.173H218.491ZM218.491 194.16V232.827H252.518C258.67 232.827 263.283 232.021 266.744 230.208C272.896 227.188 275.971 221.146 275.971 212.084C275.971 204.632 272.896 199.396 266.936 196.576C263.668 194.965 259.054 194.16 252.902 194.16H218.491ZM258.093 113C275.01 113.403 287.121 118.438 294.235 128.507C298.464 134.75 300.579 142 300.579 150.659C300.579 159.521 298.464 166.569 294.235 172.007C291.736 175.028 288.275 177.646 283.661 180.264C290.774 182.882 296.157 187.111 299.617 192.952C303.27 198.792 305 205.84 305 214.299C305 222.757 303.078 230.611 298.848 237.257C296.157 241.889 292.889 245.715 289.044 248.736C284.622 252.361 279.239 254.777 273.28 255.986C267.32 257.396 260.784 258 253.671 258H191V113H258.093Z" fill="#10CA00"/>
<path d="M346.027 150V214.908C346.027 220.974 346.657 225.625 348.127 228.658C350.856 234.117 356.106 236.747 363.875 236.747C373.955 236.747 380.674 232.904 384.453 225.22C386.343 220.974 387.183 215.515 387.183 208.438V150H417V257.573H388.443V242.408C388.233 242.61 387.603 243.621 386.343 245.239C385.293 247.059 384.033 248.474 382.563 249.688C377.944 253.529 373.534 256.361 369.335 257.776C364.925 259.191 360.096 260 354.216 260C337.628 260 326.499 254.136 320.83 242.812C317.68 236.544 316 227.04 316 214.908V150H346.027Z" fill="#10CA00"/>
<path d="M484.84 234.555C491.774 234.555 497.658 231.914 502.28 227.039C506.902 221.961 509.424 214.038 509.424 203.068C509.424 192.911 507.113 185.191 502.7 179.706C498.078 174.424 492.194 171.783 484.63 171.783C474.335 171.783 467.191 176.456 463.409 185.8C461.307 190.675 460.257 196.77 460.257 204.084C460.257 210.381 461.307 215.866 463.619 220.741C467.611 229.883 474.755 234.555 484.84 234.555ZM477.697 147C483.16 147 488.202 147.812 492.405 149.438C499.339 152.281 505.221 157.564 509.634 165.079V149.64H538V252.229C538 266.043 535.478 276.606 530.646 283.717C522.451 295.905 506.272 302 482.739 302C468.451 302 456.685 299.155 447.65 293.873C438.615 288.389 433.572 280.263 432.732 269.496H464.459C465.3 272.746 466.771 275.185 468.451 276.606C471.603 279.247 477.066 280.466 484.42 280.466C494.926 280.466 502.07 277.216 505.642 270.309C507.953 266.043 509.004 258.526 509.004 248.369V241.259C506.272 245.931 503.33 249.385 499.969 251.823C494.296 256.089 486.731 258.12 477.276 258.12C462.988 258.12 451.432 253.245 443.027 243.494C434.413 233.743 430 220.539 430 203.88C430 187.832 434.203 174.424 442.397 163.454C450.802 152.485 462.568 147 477.697 147Z" fill="#10CA00"/>
<path d="M583.249 137.347V169.589H616.978C623.076 169.589 627.84 168.372 631.651 165.939C635.462 163.506 637.177 159.247 637.177 153.164C637.177 146.269 634.7 141.809 629.745 139.781C625.553 138.159 620.027 137.347 613.357 137.347H583.249ZM583.249 193.72V232.653H616.978C623.076 232.653 627.649 231.841 631.079 230.016C637.177 226.975 640.226 220.891 640.226 211.767C640.226 204.264 637.177 198.992 631.27 196.153C628.031 194.531 623.457 193.72 617.359 193.72H583.249ZM622.504 112C639.273 112.406 651.278 117.475 658.329 127.614C662.521 133.9 664.617 141.2 664.617 149.919C664.617 158.841 662.521 165.939 658.329 171.413C655.852 174.456 652.421 177.092 647.848 179.728C654.899 182.364 660.234 186.622 663.665 192.503C667.285 198.383 669 205.481 669 213.997C669 222.514 667.094 230.422 662.902 237.114C660.234 241.778 656.995 245.631 653.184 248.672C648.802 252.323 643.466 254.755 637.558 255.972C631.651 257.392 625.172 258 618.122 258H556V112H622.504Z" fill="#10CA00"/>
<path d="M747.707 205.014C746.038 206.231 744.159 207.042 742.279 207.853C740.4 208.462 737.894 209.071 734.552 209.679L728.078 210.897C721.813 211.91 717.427 213.331 714.921 214.751C710.327 217.387 708.029 221.242 708.029 226.718C708.029 231.586 709.491 235.035 712.206 237.266C714.921 239.295 718.263 240.512 722.23 240.512C728.496 240.512 734.343 238.686 739.564 235.035C744.785 231.586 747.498 225.096 747.707 215.562V205.014ZM730.166 191.829C735.596 191.22 739.356 190.408 741.653 189.395C745.83 187.772 747.916 184.932 747.916 181.484C747.916 177.021 746.247 173.978 743.114 172.153C739.982 170.53 735.388 169.719 729.331 169.719C722.44 169.719 717.427 171.341 714.712 174.587C712.624 177.021 711.162 180.47 710.535 184.526H682.551C683.177 175.195 685.892 167.284 690.696 161.199C698.423 151.868 711.579 147 730.166 147C742.488 147 753.141 149.434 762.744 154.099C772.145 158.764 776.946 167.487 776.946 180.672V230.167C776.946 233.615 776.946 237.672 777.155 242.541C777.364 246.192 777.781 248.829 778.825 250.046C779.66 251.465 781.121 252.48 783 253.292V257.551H751.471C750.636 255.32 750.003 253.292 749.586 251.465C749.377 249.437 748.96 247.409 748.751 244.772C744.785 249.031 740.191 252.682 734.97 255.726C728.704 259.174 721.604 261 713.668 261C703.644 261 695.29 258.16 688.816 252.48C682.341 247.003 679 239.092 679 228.747C679 215.562 684.222 206.028 694.663 199.943C700.511 196.697 709.073 194.466 720.351 193.046L730.166 191.829Z" fill="#10CA00"/>
<path d="M824.302 223.402C824.925 228.535 826.379 232.025 828.256 234.284C831.995 237.979 838.642 240.032 848.204 240.032C853.812 240.032 858.382 239.211 861.712 237.363C865.036 235.721 866.698 233.256 866.698 229.972C866.698 226.687 865.451 224.223 862.751 222.58C860.051 220.938 850.073 218.064 832.618 213.958C820.148 210.878 811.209 206.977 806.016 202.46C801.031 197.943 798.33 191.373 798.33 182.75C798.33 172.691 802.485 164.067 810.378 156.881C818.486 149.49 829.71 146 844.257 146C857.967 146 869.398 148.669 877.921 154.007C886.646 159.55 891.638 168.995 892.884 182.34H863.997C863.582 178.644 862.543 175.77 860.881 173.511C857.759 169.816 852.358 167.763 844.672 167.763C838.434 167.763 833.864 168.789 831.164 170.637C828.463 172.691 827.21 174.949 827.21 177.412C827.21 180.697 828.671 183.161 831.579 184.598C834.28 186.241 844.465 188.704 861.712 192.606C873.137 195.274 881.66 199.175 887.477 204.719C893.092 210.057 896 217.037 896 225.25C896 236.131 891.846 244.96 883.738 251.734C875.637 258.51 862.959 262 845.919 262C828.671 262 815.786 258.305 807.47 251.119C799.161 243.933 795 234.694 795 223.402H824.302Z" fill="#10CA00"/>
<path d="M960.462 170.245C953.803 170.245 948.594 172.283 944.848 176.565C941.102 180.643 938.813 186.148 937.98 193.285H982.944C982.528 185.741 980.031 180.032 975.869 176.157C971.707 172.283 966.706 170.245 960.462 170.245ZM960.462 147C969.626 147 977.95 148.631 985.448 152.097C992.732 155.359 998.767 160.661 1003.56 168.001C1007.93 174.526 1010.84 181.867 1012.09 190.431C1012.92 195.324 1013.13 202.665 1012.92 211.84H937.148C937.564 222.851 941.102 230.395 947.553 234.881C951.715 237.531 956.508 238.959 962.127 238.959C967.961 238.959 972.955 237.328 976.701 233.861C978.574 232.23 980.447 229.58 981.904 226.521H1011.68C1010.84 232.842 1007.31 239.366 1001.27 246.095C991.9 256.698 978.574 262 961.503 262C947.345 262 934.852 257.514 924.239 248.542C913.411 239.774 908 225.298 908 205.111C908 186.352 912.786 171.876 922.574 161.884C932.355 151.893 944.848 147 960.462 147Z" fill="#10CA00"/>
<path d="M183.568 63.2333C177.902 63.8903 172.544 66.738 167.865 68.6687C159.37 72.1749 149.305 75.5818 145.679 81.8682C143.683 85.3257 144.022 89.4021 144.022 93.0274C144.022 95.6175 143.994 98.1886 144.286 100.767C144.407 101.828 144.219 103.308 145.59 104.109C146.857 104.848 149.663 104.727 151.291 104.727C156.239 104.728 161.194 104.892 166.121 104.907C180.562 104.95 195.005 104.907 209.447 104.907H223.114C225.106 104.907 227.574 105.15 229.511 104.85C232.979 104.312 233 102.146 233 100.407C233 96.2066 232.72 91.9942 232.709 87.808C232.699 83.5756 230.774 79.4751 225.971 76.2953C224.4 75.2555 222.331 74.4617 220.497 73.6115C216.532 71.7738 212.403 70.0688 208.284 68.3686C204.534 66.8214 200.573 64.8832 196.362 63.8558C192.731 62.9697 187.396 62.7892 183.568 63.2333Z" fill="white"/>
<path d="M130.938 140.37C129.762 145.577 127.618 160.99 126.975 161.486C126.395 161.933 97.9843 163.562 96.0089 164.408C94.6348 164.996 74.7682 182.295 73.076 185.013C70.8501 188.586 72.2276 193.562 75.8278 195.928C78.1992 197.486 81.2563 197.894 84.1071 197.422C87.7737 196.813 103.566 182.181 104.547 181.612C106.395 180.539 122.224 180.016 127.316 179.816C127.801 183.32 128.013 206.677 127.677 207.426C127.317 208.23 107.708 216.257 101.96 219.663C97.8368 222.106 88.4063 247.021 87.5908 251.149C86.1825 258.28 95.1091 263.134 101.701 260.06C105.913 258.096 111.873 237.223 114.111 234.403C115.183 233.053 128.608 227.655 133.267 225.639C134.331 227.96 135.932 230.126 137.393 232.253C143.727 241.467 152.671 248.491 163.28 253.333C169.334 256.097 175.858 258.235 182.685 258.235C182.685 224.92 183.255 115.115 182.861 113.68C182.584 112.67 181.462 111.646 180.356 111.393C179.24 111.137 151.242 111.033 149.049 111.876C147.099 112.626 145.693 114.119 144.372 115.569C142.088 118.077 139.829 120.81 138.441 123.836C136.154 122.724 116.255 114.545 115.579 113.851C114.614 112.86 105.813 90.9034 103.944 89.2253C102.152 87.615 99.2272 87.0437 96.7848 87.0015C91.1134 86.9036 87.0984 91.5126 87.4939 96.437C87.7094 99.1214 100.056 126.285 101.469 127.594C104.322 130.234 128.281 139.707 130.938 140.37Z" fill="white"/>
</svg>
