<svg width="16" height="17" viewBox="0 0 16 17" fill="none" xmlns="http://www.w3.org/2000/svg">
<path d="M6.46395 9.33221C6.41595 9.33221 5.35995 9.33221 4.87995 9.33221C4.62395 9.33221 4.54395 9.23621 4.54395 8.99621C4.54395 8.35621 4.54395 7.70021 4.54395 7.06021C4.54395 6.80421 4.63995 6.72421 4.87995 6.72421H6.46395C6.46395 6.67621 6.46395 5.74821 6.46395 5.31621C6.46395 4.67621 6.57595 4.06821 6.89595 3.50821C7.23195 2.93221 7.71195 2.54821 8.31995 2.32421C8.71995 2.18021 9.11995 2.11621 9.55195 2.11621H11.1199C11.3439 2.11621 11.4399 2.21221 11.4399 2.43621V4.26021C11.4399 4.48421 11.3439 4.58021 11.1199 4.58021C10.6879 4.58021 10.2559 4.58021 9.82395 4.59621C9.39195 4.59621 9.16795 4.80421 9.16795 5.25221C9.15195 5.73221 9.16795 6.19621 9.16795 6.69221H11.0239C11.2799 6.69221 11.3759 6.78821 11.3759 7.04421V8.98021C11.3759 9.23621 11.2959 9.31621 11.0239 9.31621C10.4479 9.31621 9.21595 9.31621 9.16795 9.31621V14.5322C9.16795 14.8042 9.08795 14.9002 8.79995 14.9002C8.12795 14.9002 7.47195 14.9002 6.79995 14.9002C6.55995 14.9002 6.46395 14.8042 6.46395 14.5642C6.46395 12.8842 6.46395 9.38021 6.46395 9.33221Z" fill="black"/>
</svg>
