<svg width="16" height="16" viewBox="0 0 16 16" fill="none" xmlns="http://www.w3.org/2000/svg">
<g clip-path="url(#clip0_369_3235)">
<path fill-rule="evenodd" clip-rule="evenodd" d="M16.6934 2.23096H13.0936L12.8363 2.27765V2.64222C12.8363 2.68504 12.9591 2.72093 12.9932 2.74764C13.0257 2.77659 13.1137 2.79229 13.1501 2.79229L13.4763 2.80942C13.8462 2.82777 13.9588 2.91239 14.1027 3.05511C14.2443 3.20294 14.2676 3.45374 14.1571 3.80628L10.9759 12.5598L10.8546 12.5217L8.83344 7.7303C8.86285 7.65833 8.88026 7.61795 8.88026 7.61795L10.535 4.03383C10.7273 3.6558 10.9136 3.31794 11.0084 3.16053C11.1812 2.87344 11.2653 2.8192 11.7362 2.79412C11.8326 2.79412 11.8693 2.74437 11.8693 2.64365V2.28112L11.8451 2.24217C11.8451 2.24217 9.86733 2.23503 8.96655 2.24217L8.96732 2.27989V2.64263C8.96732 2.68687 8.9443 2.72215 8.97602 2.74886C9.01008 2.77781 9.02439 2.7927 9.06096 2.7927L9.1958 2.81084C9.56417 2.8292 9.72861 2.94052 9.77892 3.01046C9.86694 3.13586 9.90776 3.26962 9.69495 3.80791L8.42077 6.74812L7.26945 4.02078C6.89199 3.14932 6.79855 2.87956 7.36773 2.8292L7.52076 2.79188C7.63027 2.79188 7.61305 2.74621 7.61305 2.65955V2.27826L7.60163 2.24707C7.60163 2.24707 5.49284 2.24707 4.53072 2.24768L4.51757 2.28519V2.6675C4.51757 2.75334 4.59805 2.77537 4.74702 2.79902C5.27983 2.87976 5.27074 2.9444 5.79716 4.15413C5.8761 4.33539 6.10845 4.88204 6.10845 4.88204L7.30892 7.61245C7.30892 7.61245 7.44492 7.96315 7.65812 8.50756L5.91382 12.5372L5.81399 12.5076C5.81399 12.5076 3.10738 5.89746 2.32442 3.68577C2.242 3.45802 2.20621 3.28756 2.20621 3.18255C2.20621 2.95786 2.38111 2.83613 2.73109 2.81982L3.26312 2.79963C3.37185 2.79963 3.55023 2.75151 3.55023 2.6514V2.28866L3.39004 2.25114C3.39004 2.25114 0.0738128 2.24686 -0.595778 2.25114L-0.706055 2.28866V2.67036C-0.706055 2.73887 -0.619188 2.78148 -0.46867 2.79963C-0.0567778 2.82593 0.219881 2.90138 0.349697 3.02861C0.478934 3.15666 0.619198 3.48024 0.800864 3.98448C1.78523 6.72162 3.87738 11.6062 4.8958 14.3886C5.18871 15.1477 5.55823 15.266 6.00514 14.3648C6.4654 13.3763 7.39385 11.1821 8.07098 9.56253C8.70459 11.1782 9.56726 13.364 9.98341 14.3544C10.3148 15.1469 10.6927 15.2252 11.0757 14.378C12.0783 11.7979 15.007 4.03301 15.007 4.03301C15.1335 3.65193 15.3103 3.35831 15.5382 3.14503C15.7642 2.93441 16.1009 2.81533 16.5729 2.79209C16.6685 2.79209 16.706 2.74131 16.706 2.64304V2.27847L16.6934 2.23096Z" fill="black"/>
</g>
<defs>
<clipPath id="clip0_369_3235">
<rect width="16" height="16" fill="white"/>
</clipPath>
</defs>
</svg>
